<mxfile host="app.diagrams.net" modified="2022-12-01T08:27:06.090Z" agent="5.0 (Windows NT 10.0; Win64; x64) AppleWebKit/537.36 (KHTML, like Gecko) Chrome/106.0.0.0 Safari/537.36 OPR/92.0.0.0 (Edition Yx 05)" etag="9bz494LRYJNjQrfEk4y6" version="20.6.0" type="github">
  <diagram id="C5RBs43oDa-KdzZeNtuy" name="Page-1">
    <mxGraphModel dx="1382" dy="795" grid="1" gridSize="10" guides="1" tooltips="1" connect="1" arrows="1" fold="1" page="1" pageScale="1" pageWidth="827" pageHeight="1169" math="0" shadow="0">
      <root>
        <mxCell id="WIyWlLk6GJQsqaUBKTNV-0" />
        <mxCell id="WIyWlLk6GJQsqaUBKTNV-1" parent="WIyWlLk6GJQsqaUBKTNV-0" />
        <mxCell id="ffgtTimdrk1M74xAgidG-8" style="edgeStyle=orthogonalEdgeStyle;rounded=0;orthogonalLoop=1;jettySize=auto;html=1;" edge="1" parent="WIyWlLk6GJQsqaUBKTNV-1" source="ffgtTimdrk1M74xAgidG-0" target="ffgtTimdrk1M74xAgidG-2">
          <mxGeometry relative="1" as="geometry" />
        </mxCell>
        <mxCell id="ffgtTimdrk1M74xAgidG-0" value="Ввод a, b, c" style="rounded=1;whiteSpace=wrap;html=1;" vertex="1" parent="WIyWlLk6GJQsqaUBKTNV-1">
          <mxGeometry x="200" y="130" width="120" height="60" as="geometry" />
        </mxCell>
        <mxCell id="ffgtTimdrk1M74xAgidG-7" style="edgeStyle=orthogonalEdgeStyle;rounded=0;orthogonalLoop=1;jettySize=auto;html=1;entryX=0.5;entryY=0;entryDx=0;entryDy=0;" edge="1" parent="WIyWlLk6GJQsqaUBKTNV-1" source="ffgtTimdrk1M74xAgidG-1" target="ffgtTimdrk1M74xAgidG-0">
          <mxGeometry relative="1" as="geometry" />
        </mxCell>
        <mxCell id="ffgtTimdrk1M74xAgidG-1" value="" style="ellipse;whiteSpace=wrap;html=1;aspect=fixed;fillColor=#000000;" vertex="1" parent="WIyWlLk6GJQsqaUBKTNV-1">
          <mxGeometry x="240" y="40" width="40" height="40" as="geometry" />
        </mxCell>
        <mxCell id="ffgtTimdrk1M74xAgidG-9" style="edgeStyle=orthogonalEdgeStyle;rounded=0;orthogonalLoop=1;jettySize=auto;html=1;entryX=0.5;entryY=0;entryDx=0;entryDy=0;" edge="1" parent="WIyWlLk6GJQsqaUBKTNV-1" source="ffgtTimdrk1M74xAgidG-2" target="ffgtTimdrk1M74xAgidG-3">
          <mxGeometry relative="1" as="geometry" />
        </mxCell>
        <mxCell id="ffgtTimdrk1M74xAgidG-2" value="t = 1&lt;br&gt;d = b/100&lt;br&gt;x = a" style="rounded=1;whiteSpace=wrap;html=1;" vertex="1" parent="WIyWlLk6GJQsqaUBKTNV-1">
          <mxGeometry x="200" y="250" width="120" height="60" as="geometry" />
        </mxCell>
        <mxCell id="ffgtTimdrk1M74xAgidG-10" style="edgeStyle=orthogonalEdgeStyle;rounded=0;orthogonalLoop=1;jettySize=auto;html=1;entryX=0.5;entryY=0;entryDx=0;entryDy=0;" edge="1" parent="WIyWlLk6GJQsqaUBKTNV-1" source="ffgtTimdrk1M74xAgidG-3" target="ffgtTimdrk1M74xAgidG-5">
          <mxGeometry relative="1" as="geometry" />
        </mxCell>
        <mxCell id="ffgtTimdrk1M74xAgidG-11" style="edgeStyle=orthogonalEdgeStyle;rounded=0;orthogonalLoop=1;jettySize=auto;html=1;entryX=0;entryY=0.5;entryDx=0;entryDy=0;" edge="1" parent="WIyWlLk6GJQsqaUBKTNV-1" source="ffgtTimdrk1M74xAgidG-3" target="ffgtTimdrk1M74xAgidG-4">
          <mxGeometry relative="1" as="geometry" />
        </mxCell>
        <mxCell id="ffgtTimdrk1M74xAgidG-3" value="" style="rhombus;whiteSpace=wrap;html=1;" vertex="1" parent="WIyWlLk6GJQsqaUBKTNV-1">
          <mxGeometry x="240" y="400" width="40" height="40" as="geometry" />
        </mxCell>
        <mxCell id="ffgtTimdrk1M74xAgidG-14" style="edgeStyle=orthogonalEdgeStyle;rounded=0;orthogonalLoop=1;jettySize=auto;html=1;" edge="1" parent="WIyWlLk6GJQsqaUBKTNV-1" source="ffgtTimdrk1M74xAgidG-4" target="ffgtTimdrk1M74xAgidG-13">
          <mxGeometry relative="1" as="geometry" />
        </mxCell>
        <mxCell id="ffgtTimdrk1M74xAgidG-15" style="edgeStyle=orthogonalEdgeStyle;rounded=0;orthogonalLoop=1;jettySize=auto;html=1;" edge="1" parent="WIyWlLk6GJQsqaUBKTNV-1" source="ffgtTimdrk1M74xAgidG-4" target="ffgtTimdrk1M74xAgidG-12">
          <mxGeometry relative="1" as="geometry" />
        </mxCell>
        <mxCell id="ffgtTimdrk1M74xAgidG-4" value="" style="rhombus;whiteSpace=wrap;html=1;" vertex="1" parent="WIyWlLk6GJQsqaUBKTNV-1">
          <mxGeometry x="480" y="400" width="40" height="40" as="geometry" />
        </mxCell>
        <mxCell id="ffgtTimdrk1M74xAgidG-6" style="edgeStyle=orthogonalEdgeStyle;rounded=0;orthogonalLoop=1;jettySize=auto;html=1;entryX=0;entryY=0.5;entryDx=0;entryDy=0;" edge="1" parent="WIyWlLk6GJQsqaUBKTNV-1" source="ffgtTimdrk1M74xAgidG-5" target="ffgtTimdrk1M74xAgidG-3">
          <mxGeometry relative="1" as="geometry">
            <Array as="points">
              <mxPoint x="160" y="590" />
              <mxPoint x="160" y="420" />
            </Array>
          </mxGeometry>
        </mxCell>
        <mxCell id="ffgtTimdrk1M74xAgidG-5" value="x += a + x*d&lt;br&gt;t += 1" style="rounded=1;whiteSpace=wrap;html=1;" vertex="1" parent="WIyWlLk6GJQsqaUBKTNV-1">
          <mxGeometry x="200" y="560" width="120" height="60" as="geometry" />
        </mxCell>
        <mxCell id="ffgtTimdrk1M74xAgidG-21" style="edgeStyle=orthogonalEdgeStyle;rounded=0;orthogonalLoop=1;jettySize=auto;html=1;entryX=0;entryY=0.5;entryDx=0;entryDy=0;" edge="1" parent="WIyWlLk6GJQsqaUBKTNV-1" source="ffgtTimdrk1M74xAgidG-12" target="ffgtTimdrk1M74xAgidG-20">
          <mxGeometry relative="1" as="geometry" />
        </mxCell>
        <mxCell id="ffgtTimdrk1M74xAgidG-12" value="Вывод x" style="rounded=1;whiteSpace=wrap;html=1;" vertex="1" parent="WIyWlLk6GJQsqaUBKTNV-1">
          <mxGeometry x="440" y="560" width="120" height="60" as="geometry" />
        </mxCell>
        <mxCell id="ffgtTimdrk1M74xAgidG-22" style="edgeStyle=orthogonalEdgeStyle;rounded=0;orthogonalLoop=1;jettySize=auto;html=1;" edge="1" parent="WIyWlLk6GJQsqaUBKTNV-1" source="ffgtTimdrk1M74xAgidG-13" target="ffgtTimdrk1M74xAgidG-20">
          <mxGeometry relative="1" as="geometry" />
        </mxCell>
        <mxCell id="ffgtTimdrk1M74xAgidG-13" value="Ошибка введенных данных" style="rounded=1;whiteSpace=wrap;html=1;" vertex="1" parent="WIyWlLk6GJQsqaUBKTNV-1">
          <mxGeometry x="600" y="390" width="120" height="60" as="geometry" />
        </mxCell>
        <mxCell id="ffgtTimdrk1M74xAgidG-16" value="x &amp;lt; a" style="text;html=1;align=center;verticalAlign=middle;resizable=0;points=[];autosize=1;strokeColor=none;fillColor=none;" vertex="1" parent="WIyWlLk6GJQsqaUBKTNV-1">
          <mxGeometry x="540" y="390" width="50" height="30" as="geometry" />
        </mxCell>
        <mxCell id="ffgtTimdrk1M74xAgidG-17" value="[else]" style="text;html=1;align=center;verticalAlign=middle;resizable=0;points=[];autosize=1;strokeColor=none;fillColor=none;" vertex="1" parent="WIyWlLk6GJQsqaUBKTNV-1">
          <mxGeometry x="495" y="475" width="50" height="30" as="geometry" />
        </mxCell>
        <mxCell id="ffgtTimdrk1M74xAgidG-18" value="t = c" style="text;html=1;align=center;verticalAlign=middle;resizable=0;points=[];autosize=1;strokeColor=none;fillColor=none;" vertex="1" parent="WIyWlLk6GJQsqaUBKTNV-1">
          <mxGeometry x="305" y="385" width="50" height="30" as="geometry" />
        </mxCell>
        <mxCell id="ffgtTimdrk1M74xAgidG-19" value="t &amp;lt; c" style="text;html=1;align=center;verticalAlign=middle;resizable=0;points=[];autosize=1;strokeColor=none;fillColor=none;" vertex="1" parent="WIyWlLk6GJQsqaUBKTNV-1">
          <mxGeometry x="255" y="475" width="50" height="30" as="geometry" />
        </mxCell>
        <mxCell id="ffgtTimdrk1M74xAgidG-20" value="" style="ellipse;whiteSpace=wrap;html=1;aspect=fixed;fillColor=#000000;" vertex="1" parent="WIyWlLk6GJQsqaUBKTNV-1">
          <mxGeometry x="640" y="570" width="40" height="40" as="geometry" />
        </mxCell>
      </root>
    </mxGraphModel>
  </diagram>
</mxfile>
